<svg xmlns="http://www.w3.org/2000/svg" width="512" height="512" viewBox="0 0 512 512">
  <defs>
    <linearGradient id="topla-radar-gradient-512" x1="0%" y1="0%" x2="100%" y2="100%">
      <stop offset="0%" stop-color="#4F46E5"/>
      <stop offset="100%" stop-color="#7C3AED"/>
    </linearGradient>
  </defs>
  <!-- Rounded square background -->
  <rect x="32" y="32" width="448" height="448" rx="112" fill="url(#topla-radar-gradient-512)"/>

  <!-- Lucide Radar glyph, centered and scaled -->
  <g transform="translate(128,128) scale(10)" fill="none" stroke="#FFFFFF" stroke-width="2" stroke-linecap="round" stroke-linejoin="round">
    <path d="M19.07 4.93A10 10 0 0 0 6.99 3.34"/>
    <path d="M4 6h.01"/>
    <path d="M2.29 9.62A10 10 0 1 0 21.31 8.35"/>
    <path d="M16.24 7.76A6 6 0 1 0 8.23 16.67"/>
    <path d="M12 18h.01"/>
    <path d="M17.99 11.66A6 6 0 0 1 15.77 16.67"/>
    <circle cx="12" cy="12" r="2"/>
    <path d="m13.41 10.59 5.66-5.66"/>
  </g>
</svg>

<svg xmlns="http://www.w3.org/2000/svg" width="512" height="512" viewBox="0 0 512 512">
  <defs>
    <linearGradient id="g" x1="0%" y1="0%" x2="100%" y2="100%">
      <stop offset="0%" style="stop-color:#6366f1"/>
      <stop offset="100%" style="stop-color:#a855f7"/>
    </linearGradient>
  </defs>
  <rect width="512" height="512" rx="108" fill="url(#g)"/>
  <circle cx="256" cy="256" r="108" fill="none" stroke="white" stroke-width="16"/>
  <circle cx="256" cy="256" r="64" fill="none" stroke="white" stroke-width="10" stroke-dasharray="20 16"/>
  <circle cx="256" cy="256" r="16" fill="white"/>
  <line x1="256" y1="148" x2="256" y2="108" stroke="white" stroke-width="10" stroke-linecap="round"/>
</svg>
